<svg xmlns="http://www.w3.org/2000/svg" xmlns:xlink="http://www.w3.org/1999/xlink" width="15" height="16" viewBox="0 0 15 16"><defs><path id="1rnva" d="M1310.64 19.83a2.58 2.58 0 0 1 2.5-2.64c1.37 0 2.49 1.19 2.49 2.64v.97h-5zm9.15.97h-2.97v-.97a3.77 3.77 0 0 0-3.69-3.83 3.77 3.77 0 0 0-3.68 3.83v.97h-2.97a.48.48 0 0 0-.48.48v9.3c0 .78.64 1.42 1.43 1.42h11.4c.48 0 1.44-.64 1.44-1.43v-9.3a.48.48 0 0 0-.48-.47z"/></defs><g><g transform="translate(-1306 -16)"><use fill="#5d3131" xlink:href="#1rnva"/></g></g></svg>