<svg xmlns="http://www.w3.org/2000/svg" xmlns:xlink="http://www.w3.org/1999/xlink" width="27" height="24" viewBox="0 0 27 24"><defs><path id="brvia" d="M1050.91 919.13a7.05 7.05 0 0 0-10.09 0l-1.32 1.34-1.32-1.34a7.05 7.05 0 0 0-10.1 0 7.35 7.35 0 0 0 0 10.26L1039.5 941l11.41-11.61a7.35 7.35 0 0 0 0-10.26m-1.7 8.54l-9.71 9.89-9.71-9.9a4.89 4.89 0 0 1 0-6.8 4.66 4.66 0 0 1 6.69 0l3.02 3.07 3.02-3.08a4.66 4.66 0 0 1 6.7 0 4.89 4.89 0 0 1 0 6.82"/></defs><g><g transform="translate(-1026 -917)"><use fill="#5d3131" xlink:href="#brvia"/></g></g></svg>
