<svg xmlns="http://www.w3.org/2000/svg" xmlns:xlink="http://www.w3.org/1999/xlink" width="20" height="20" viewBox="0 0 20 20"><defs><path id="k8hua" d="M1097.08 3097.23a3.27 3.27 0 0 1-3.28-3.23 3.27 3.27 0 0 1 3.28-3.22c1.8 0 3.28 1.46 3.28 3.22a3.27 3.27 0 0 1-3.28 3.23zm0-8.25a5.08 5.08 0 0 0-5.12 5.02 5.06 5.06 0 0 0 5.12 5.02 5.08 5.08 0 0 0 5.12-5.02 5.1 5.1 0 0 0-5.12-5.02z"/><path id="k8hub" d="M1101.24 3088.86c0-.62.52-1.13 1.16-1.13.64 0 1.16.5 1.16 1.13 0 .63-.52 1.14-1.16 1.14-.64 0-1.16-.5-1.16-1.14z"/><path id="k8huc" d="M1105.24 3098.08a3.8 3.8 0 0 1-1.16 2.87 4.18 4.18 0 0 1-2.92 1.02H1093c-1.2 0-2.2-.36-2.92-1.02a3.9 3.9 0 0 1-1.08-2.9V3090c0-1.18.36-2.16 1.08-2.87a4.11 4.11 0 0 1 2.92-1.02h8.24c1.2 0 2.2.36 2.92 1.06a4 4 0 0 1 1.08 2.83v8.08zm.16-12.16a5.76 5.76 0 0 0-4.2-1.61h-8.24c-3.48 0-5.8 2.27-5.8 5.69v8.04c0 1.68.56 3.13 1.68 4.2a5.9 5.9 0 0 0 4.16 1.52h8.16c1.72 0 3.16-.55 4.2-1.53a5.56 5.56 0 0 0 1.64-4.16V3090c0-1.65-.56-3.06-1.6-4.08z"/></defs><g><g transform="translate(-1087 -3084)"><g><use fill="#3897f0" xlink:href="#k8hua"/></g><g><use fill="#3897f0" xlink:href="#k8hub"/></g><g><use fill="#3897f0" xlink:href="#k8huc"/></g></g></g></svg>