<svg xmlns="http://www.w3.org/2000/svg" xmlns:xlink="http://www.w3.org/1999/xlink" width="13" height="20" viewBox="0 0 13 20"><defs><path id="u1ana" d="M1099.29 3120.1c0 1.13-1 2.04-2.21 2.04-1.22 0-2.21-.91-2.21-2.04s.99-2.04 2.2-2.04c1.23 0 2.22.91 2.22 2.04zm-.2 9.23c1.24-.21 2.42-.64 3.49-1.25.47-.26.75-.75.73-1.26a1.42 1.42 0 0 0-.82-1.21 1.66 1.66 0 0 0-1.55.05 7.95 7.95 0 0 1-7.6.07 1.62 1.62 0 0 0-2.12.5c-.44.67-.2 1.54.52 1.95 1.03.56 2.15.95 3.32 1.15l-3.5 3.23c-.39.36-.54.89-.4 1.38.15.5.56.88 1.1 1.01.53.13 1.1 0 1.5-.37l3.32-3.07 3.32 3.07c.4.36.96.5 1.5.37a1.5 1.5 0 0 0 1.1-1c.13-.5-.02-1.03-.41-1.39zm3.51-9.23c0-2.82-2.47-5.1-5.52-5.1-3.05 0-5.53 2.28-5.53 5.1s2.48 5.1 5.53 5.1c3.05 0 5.52-2.28 5.52-5.1z"/></defs><g><g transform="translate(-1091 -3115)"><use fill="#f58121" xlink:href="#u1ana"/></g></g></svg>