<svg xmlns="http://www.w3.org/2000/svg" xmlns:xlink="http://www.w3.org/1999/xlink" width="20" height="12" viewBox="0 0 20 12"><defs><path id="3je0a" d="M1106.22 3059.5h-3.25a.73.73 0 0 0-.65.4s-1.29 2.4-1.7 3.2c-1.12 2.18-1.85 1.5-1.85.48v-3.48c0-.6-.49-1.1-1.09-1.1h-2.44a1.95 1.95 0 0 0-1.73.81s1.24-.2 1.24 1.48l.04 2.62c.01.3-.17.58-.45.7a.72.72 0 0 1-.8-.2c-1-1.4-1.83-2.9-2.47-4.5a.68.68 0 0 0-.62-.4h-2.95a.5.5 0 0 0-.4.2.5.5 0 0 0-.07.47c.9 2.48 4.75 10.25 9.16 10.25h1.85c.4 0 .73-.33.73-.74v-1.13a.72.72 0 0 1 1.21-.53l2.22 2.1c.2.2.46.3.74.3h2.9c1.41 0 1.41-.98.65-1.74-.54-.54-2.49-2.6-2.49-2.6a1.02 1.02 0 0 1-.07-1.32l2.09-2.78c.6-.8 1.67-2.49.2-2.49z"/></defs><g><g transform="translate(-1087 -3059)"><use fill="#4a76a8" xlink:href="#3je0a"/></g></g></svg>